<?xml version="1.0" encoding="UTF-8" standalone="no"?>
<svg
   version="1.0"
   width="752.000000pt"
   height="752.000000pt"
   viewBox="0 0 752.000000 752.000000"
   preserveAspectRatio="xMidYMid meet"
   id="svg12"
   sodipodi:docname="van_2.svg"
   inkscape:version="1.1.2 (0a00cf5339, 2022-02-04)"
   xmlns:inkscape="http://www.inkscape.org/namespaces/inkscape"
   xmlns:sodipodi="http://sodipodi.sourceforge.net/DTD/sodipodi-0.dtd"
   xmlns="http://www.w3.org/2000/svg"
   xmlns:svg="http://www.w3.org/2000/svg">
  <defs
     id="defs16" />
  <sodipodi:namedview
     id="namedview14"
     pagecolor="#ffffff"
     bordercolor="#666666"
     borderopacity="1.0"
     inkscape:pageshadow="2"
     inkscape:pageopacity="0.0"
     inkscape:pagecheckerboard="0"
     inkscape:document-units="pt"
     showgrid="false"
     inkscape:zoom="0.64"
     inkscape:cx="1246.0938"
     inkscape:cy="755.46875"
     inkscape:window-width="2810"
     inkscape:window-height="1736"
     inkscape:window-x="0"
     inkscape:window-y="0"
     inkscape:window-maximized="1"
     inkscape:current-layer="g10" />
  <g
     transform="translate(0.000000,752.000000) scale(0.100000,-0.100000)"
     fill="#000000"
     stroke="none"
     id="g10">
    <path
       d="m 3159.7164,7358.2534 c -49.9863,-3.9989 -205.9435,-17.9951 -349.904,-29.9917 -319.9121,-25.9929 -731.799,-99.9726 -953.738,-169.9534 -349.9039,-109.9697 -601.8347,-281.9226 -627.8276,-425.883 -7.9978,-39.9891 -19.9945,-79.9781 -27.9924,-91.9748 -7.9978,-9.9973 -107.9703,-333.9083 -221.93903,-717.8028 C 756.3764,5174.853 756.3764,5172.8535 638.40874,5216.8415 c -45.98731,17.995 -51.98578,29.9917 -43.98791,91.9747 15.99561,143.9604 -123.966,301.9171 -267.92643,301.9171 -35.99016,0 -97.9731,-11.9966 -135.96268,-27.9923 -195.9462077,-81.9775 -199.9450124,-403.8891 -7.99774,-503.8615 85.9763,-43.988 241.93353,-29.992 303.91646,27.9922 41.98851,39.989 45.98745,39.989 87.97583,3.999 39.98912,-31.9912 43.98792,-47.9869 33.99077,-125.9654 -7.99787,-61.9832 -3.99894,-109.9699 15.99549,-149.959 23.99349,-47.9868 27.99243,-101.9721 13.99621,-305.9159 -9.99727,-135.9627 -23.99335,-751.7935 -29.9917,-1365.625 l -13.99621,-1119.6925 -97.97311,-89.9753 c -81.97749,-77.9785 -97.9731,-105.9708 -107.97038,-185.949 -25.99276,-191.9473 45.98745,-331.9087 207.94289,-403.8889 l 77.97869,-35.9902 11.99667,-391.89243 c 11.99668,-385.89396 47.98686,-657.81931 95.97358,-715.80345 33.99077,-39.98898 601.83473,-39.98898 635.82543,0 11.9967,15.99562 31.9912,81.97749 43.988,147.9595 l 21.9939,119.96693 165.9544,7.99787 c 91.9748,1.99941 171.9527,11.99669 177.9511,17.99502 27.9924,27.9923 71.9803,333.9083 71.9803,499.86276 v 177.9511 h 117.9675 c 99.9726,0 121.9666,5.9984 131.9638,37.9896 19.9945,61.983 243.9331,71.9801 1599.5608,71.9801 1369.6239,0 1621.5546,-9.9971 1639.5496,-71.9801 9.9973,-31.9912 31.9913,-37.9896 131.9639,-37.9896 h 117.9675 V 998.00014 c 1.9996,-189.94788 37.9896,-451.87595 67.9814,-481.86766 7.9979,-7.99787 89.9753,-17.99515 181.95,-19.99456 l 163.955,-7.99787 21.994,-131.96374 c 11.9967,-71.98021 33.9906,-137.96209 47.9868,-145.95984 43.988,-27.99229 607.8331,-21.99395 631.8264,7.99775 45.9875,53.98519 87.9758,373.89727 97.9732,747.79468 l 11.9966,381.8951 63.9824,11.9967 c 105.9709,19.9944 229.9369,193.9467 229.9369,323.911 0,79.9782 -91.9747,259.9287 -157.9566,309.915 l -55.9846,41.9884 -11.9967,1081.7029 c -7.9979,595.8364 -21.9939,1211.6674 -31.9912,1369.624 -15.9956,237.9346 -13.9962,297.9181 9.9973,355.9022 19.9944,47.9867 25.9927,99.9725 17.9949,155.9572 -9.9971,65.9818 -5.9982,89.9753 19.9946,111.9693 29.9918,23.9933 43.988,21.9939 111.9692,-15.9957 203.9439,-117.9676 437.8797,5.9984 437.8797,233.9356 0,173.9524 -137.962,295.9189 -313.9137,275.9244 -141.961,-15.9956 -245.9324,-137.9621 -245.9324,-289.9203 0,-61.983 -9.9974,-81.9775 -43.9879,-95.9738 -111.9693,-47.9866 -115.9682,-43.9879 -283.922,527.8552 -87.9759,293.9193 -187.9485,623.8286 -221.9391,733.7984 -35.9902,109.9698 -69.9809,223.9384 -77.9786,255.9298 -35.9903,151.9582 -325.9106,335.9076 -693.8095,441.8786 -187.9484,53.9851 -559.8462,119.967 -867.7616,151.9582 -195.9463,21.9939 -1411.6125,43.9878 -1589.5635,27.9923 z M 6124.902,6720.4286 c 87.9759,-9.9973 93.9742,-13.9962 71.9802,-53.9852 -29.9916,-53.9852 -17.9949,-133.9633 111.9694,-781.7853 57.9839,-293.9194 123.9658,-565.8445 143.9604,-603.8341 21.994,-43.9879 77.9785,-93.9743 145.9599,-133.9633 107.9702,-65.9819 109.9699,-67.9812 115.9681,-167.9539 9.9973,-165.9544 -37.9895,-219.9396 -335.9078,-367.8989 C 5659.0299,4251.1067 5195.1573,3929.1952 4739.2826,3465.3226 4407.3737,3127.4153 4273.4105,2917.473 4051.4714,2377.6213 3965.495,2167.679 3933.5038,2113.6937 3879.5187,2077.7036 c -159.9562,-109.9698 -255.9297,-37.9895 -389.8931,287.9209 -211.9417,523.8561 -341.9059,731.7989 -659.8186,1061.7085 -457.8743,477.8687 -945.7403,821.7742 -1669.5417,1183.6749 -239.93392,117.9676 -359.90098,225.9379 -359.90098,319.9121 0,87.9759 37.98958,155.9571 103.97144,177.9511 31.99111,11.9967 87.97583,51.9858 125.96544,91.9748 77.9785,83.9769 95.9735,149.9588 243.9329,921.7469 79.978,415.8859 89.9754,495.8638 67.9814,529.8544 -13.9963,23.9935 -21.9939,43.9879 -17.9952,47.9868 31.9913,31.9913 495.8639,39.9891 2453.3263,35.9903 1237.6601,-1.9996 2293.3702,-7.9979 2347.3554,-15.9957 z M 458.45814,5496.7646 c 33.99065,-31.9912 65.98188,-79.9781 73.97975,-109.9697 11.99669,-53.9853 9.99715,-55.9847 -67.9814,-55.9847 -45.98732,0 -89.97523,11.9967 -103.97144,29.9917 -13.99609,15.9957 -37.98958,29.9918 -53.9852,29.9918 -13.99608,0 -31.99124,-13.9961 -37.98957,-29.9918 -7.99775,-19.9944 -39.98898,-29.9917 -99.97251,-29.9917 -47.98685,0 -87.975831,5.9983 -87.975831,11.9967 0,5.9983 13.996214,41.9886 31.991231,79.9781 63.98247,133.9632 239.93413,171.9527 345.90497,73.9796 z M 7370.56,5482.7686 c 37.9895,-37.9896 67.9812,-85.9765 67.9812,-109.9699 0,-35.9902 -11.9967,-41.9885 -77.9785,-41.9885 -49.9863,0 -81.9775,9.9973 -89.9754,29.9917 -5.9984,15.9957 -29.9917,29.9918 -51.9856,29.9918 -21.994,0 -45.9873,-13.9961 -51.9858,-29.9918 -7.9978,-19.9944 -39.989,-29.9917 -89.9752,-29.9917 -65.9819,0 -77.9786,5.9983 -77.9786,41.9885 0,23.9934 29.9917,71.9803 67.9813,109.9699 55.9846,55.9845 83.9769,67.9812 151.9583,67.9812 67.9813,0 95.9735,-11.9967 151.9583,-67.9812 z M 1524.1656,4233.1117 c 89.9752,-79.9782 91.9746,-191.9473 5.9983,-281.9225 -137.9621,-145.96 -391.8925,-7.998 -341.9061,185.9488 5.9984,25.9928 35.9901,71.9803 63.9824,99.9726 75.979,75.9791 183.9495,73.9796 271.9254,-3.9989 z m 4780.6871,9.9971 c 201.9445,-187.9482 -63.9825,-477.8686 -269.9259,-293.9192 -53.9852,47.9868 -65.982,71.9803 -65.982,141.9609 0,169.9534 211.9418,265.9272 335.9079,151.9583 z M 1910.0595,3673.2654 c 99.9725,-43.9879 217.9401,-171.9529 249.9313,-271.9253 91.9747,-281.9226 -131.9636,-591.8375 -425.883,-591.8375 -263.9274,0 -453.8753,187.9484 -453.8753,449.8764 0,321.9117 339.9066,545.8502 629.827,413.8864 z m 4128.8661,-11.9967 c 119.967,-59.9835 207.9428,-173.9522 239.9341,-309.9149 63.9825,-267.9264 -157.9566,-539.8517 -441.8786,-539.8517 -391.8924,1.9994 -601.8348,455.8748 -341.9061,743.7957 143.9604,159.956 355.9022,201.9445 543.8506,105.9709 z m 931.7442,-1791.508 c 97.9731,-97.9731 79.9779,-317.9127 -29.9919,-377.8963 -25.9928,-13.9961 -1061.7083,-19.9945 -3171.1291,-19.9945 -2109.4205,0 -3145.13627,5.9984 -3171.12902,19.9945 -139.96164,75.9793 -119.96707,357.9018 31.99123,421.8842 21.99395,7.998 1445.60289,13.9962 3163.13129,11.9967 l 3125.1418,-3.9987 z"
       id="path2"
       style="stroke-width:1.99945" />
    <text
       xml:space="preserve"
       style="font-style:normal;font-weight:normal;font-size:459.873px;line-height:1.25;font-family:sans-serif;fill:#000000;fill-opacity:1;stroke:none;stroke-width:14.9958"
       x="2777.4062"
       y="-1581.2374"
       id="text6137"
       transform="scale(1,-1)"><tspan
         sodipodi:role="line"
         id="tspan6135"
         style="font-style:normal;font-variant:normal;font-weight:normal;font-stretch:normal;font-size:459.873px;font-family:Dyuthi;-inkscape-font-specification:'Dyuthi, Normal';font-variant-ligatures:normal;font-variant-caps:normal;font-variant-numeric:normal;font-variant-east-asian:normal;stroke-width:14.9958"
         x="2777.4062"
         y="-1581.2374">SVBox.org</tspan></text>
  </g>
</svg>
