<?xml version="1.0" standalone="no"?>
<!DOCTYPE svg PUBLIC "-//W3C//DTD SVG 20010904//EN"
 "http://www.w3.org/TR/2001/REC-SVG-20010904/DTD/svg10.dtd">
<svg version="1.0" xmlns="http://www.w3.org/2000/svg"
 width="752.000000pt" height="752.000000pt" viewBox="0 0 752.000000 752.000000"
 preserveAspectRatio="xMidYMid meet">

<g transform="translate(0.000000,752.000000) scale(0.100000,-0.100000)"
fill="#000000" stroke="none">
<path d="M3450 5554 c-25 -2 -103 -9 -175 -15 -160 -13 -366 -50 -477 -85
-175 -55 -301 -141 -314 -213 -4 -20 -10 -40 -14 -46 -4 -5 -54 -167 -111
-359 -111 -374 -111 -375 -170 -353 -23 9 -26 15 -22 46 8 72 -62 151 -134
151 -18 0 -49 -6 -68 -14 -98 -41 -100 -202 -4 -252 43 -22 121 -15 152 14 21
20 23 20 44 2 20 -16 22 -24 17 -63 -4 -31 -2 -55 8 -75 12 -24 14 -51 7 -153
-5 -68 -12 -376 -15 -683 l-7 -560 -49 -45 c-41 -39 -49 -53 -54 -93 -13 -96
23 -166 104 -202 l39 -18 6 -196 c6 -193 24 -329 48 -358 17 -20 301 -20 318
0 6 8 16 41 22 74 l11 60 83 4 c46 1 86 6 89 9 14 14 36 167 36 250 l0 89 59
0 c50 0 61 3 66 19 10 31 122 36 800 36 685 0 811 -5 820 -36 5 -16 16 -19 66
-19 l59 0 0 -97 c1 -95 19 -226 34 -241 4 -4 45 -9 91 -10 l82 -4 11 -66 c6
-36 17 -69 24 -73 22 -14 304 -11 316 4 23 27 44 187 49 374 l6 191 32 6 c53
10 115 97 115 162 0 40 -46 130 -79 155 l-28 21 -6 541 c-4 298 -11 606 -16
685 -8 119 -7 149 5 178 10 24 13 50 9 78 -5 33 -3 45 10 56 15 12 22 11 56
-8 102 -59 219 3 219 117 0 87 -69 148 -157 138 -71 -8 -123 -69 -123 -145 0
-31 -5 -41 -22 -48 -56 -24 -58 -22 -142 264 -44 147 -94 312 -111 367 -18 55
-35 112 -39 128 -18 76 -163 168 -347 221 -94 27 -280 60 -434 76 -98 11 -706
22 -795 14z m1483 -319 c44 -5 47 -7 36 -27 -15 -27 -9 -67 56 -391 29 -147
62 -283 72 -302 11 -22 39 -47 73 -67 54 -33 55 -34 58 -84 5 -83 -19 -110
-168 -184 -360 -180 -592 -341 -820 -573 -166 -169 -233 -274 -344 -544 -43
-105 -59 -132 -86 -150 -80 -55 -128 -19 -195 144 -106 262 -171 366 -330 531
-229 239 -473 411 -835 592 -120 59 -180 113 -180 160 0 44 19 78 52 89 16 6
44 26 63 46 39 42 48 75 122 461 40 208 45 248 34 265 -7 12 -11 22 -9 24 16
16 248 20 1227 18 619 -1 1147 -4 1174 -8z m-2834 -612 c17 -16 33 -40 37 -55
6 -27 5 -28 -34 -28 -23 0 -45 6 -52 15 -7 8 -19 15 -27 15 -7 0 -16 -7 -19
-15 -4 -10 -20 -15 -50 -15 -24 0 -44 3 -44 6 0 3 7 21 16 40 32 67 120 86
173 37z m3457 -7 c19 -19 34 -43 34 -55 0 -18 -6 -21 -39 -21 -25 0 -41 5 -45
15 -3 8 -15 15 -26 15 -11 0 -23 -7 -26 -15 -4 -10 -20 -15 -45 -15 -33 0 -39
3 -39 21 0 12 15 36 34 55 28 28 42 34 76 34 34 0 48 -6 76 -34z m-2924 -625
c45 -40 46 -96 3 -141 -69 -73 -196 -4 -171 93 3 13 18 36 32 50 38 38 92 37
136 -2z m2391 5 c101 -94 -32 -239 -135 -147 -27 24 -33 36 -33 71 0 85 106
133 168 76z m-2198 -285 c50 -22 109 -86 125 -136 46 -141 -66 -296 -213 -296
-132 0 -227 94 -227 225 0 161 170 273 315 207z m2065 -6 c60 -30 104 -87 120
-155 32 -134 -79 -270 -221 -270 -196 1 -301 228 -171 372 72 80 178 101 272
53z m466 -896 c49 -49 40 -159 -15 -189 -13 -7 -531 -10 -1586 -10 -1055 0
-1573 3 -1586 10 -70 38 -60 179 16 211 11 4 723 7 1582 6 l1563 -2 26 -26z"/>
<path d="M3536 2785 c-9 -9 -16 -22 -16 -29 0 -17 33 -46 52 -46 9 0 21 -7 28
-15 17 -20 -13 -32 -45 -17 -15 7 -26 8 -30 2 -12 -19 7 -30 50 -30 86 0 104
69 24 90 -21 6 -39 15 -39 21 0 17 30 22 56 10 22 -10 25 -9 22 6 -4 25 -79
30 -102 8z"/>
<path d="M3662 2792 c2 -4 14 -38 28 -75 22 -59 28 -67 51 -67 23 0 29 7 49
63 13 34 25 68 28 75 3 10 -2 13 -18 10 -18 -2 -27 -15 -41 -53 -14 -41 -18
-47 -24 -30 -30 77 -35 85 -55 85 -12 0 -20 -3 -18 -8z"/>
<path d="M3853 2793 c-21 -8 -15 -26 7 -20 18 5 20 0 20 -49 0 -47 -2 -54 -20
-54 -11 0 -20 -4 -20 -10 0 -5 25 -10 55 -10 30 0 55 5 55 10 0 6 -7 10 -15
10 -12 0 -15 14 -15 65 0 64 0 65 -27 64 -16 0 -34 -3 -40 -6z"/>
</g>
</svg>
